<svg width="21" height="20" viewBox="0 0 21 20" fill="none" xmlns="http://www.w3.org/2000/svg">
<path d="M9.88185 9.08333C7.99019 8.59167 7.38185 8.08333 7.38185 7.29167C7.38185 6.38333 8.22352 5.75 9.63185 5.75C11.1152 5.75 11.6652 6.45833 11.7152 7.5H13.5568C13.4985 6.06667 12.6235 4.75 10.8819 4.325V2.5H8.38185V4.3C6.76518 4.65 5.46519 5.7 5.46519 7.30833C5.46519 9.23333 7.05685 10.1917 9.38185 10.75C11.4652 11.25 11.8819 11.9833 11.8819 12.7583C11.8819 13.3333 11.4735 14.25 9.63185 14.25C7.91518 14.25 7.24019 13.4833 7.14852 12.5H5.31519C5.41519 14.325 6.78185 15.35 8.38185 15.6917V17.5H10.8819V15.7083C12.5069 15.4 13.7985 14.4583 13.7985 12.75C13.7985 10.3833 11.7735 9.575 9.88185 9.08333Z" fill="#333333"/>
</svg>
