<svg width="48" height="48" viewBox="0 0 48 48" fill="none" xmlns="http://www.w3.org/2000/svg">
<path d="M24 33V15" stroke="#555CFF" stroke-width="2" stroke-linecap="round" stroke-linejoin="round"/>
<path d="M16.5 27C17.9834 27 19.4334 27.4399 20.6668 28.264C21.9001 29.0881 22.8614 30.2594 23.4291 31.6299C23.9968 33.0003 24.1453 34.5083 23.8559 35.9632C23.5665 37.418 22.8522 38.7544 21.8033 39.8033C20.7544 40.8522 19.418 41.5665 17.9632 41.8559C16.5083 42.1453 15.0003 41.9968 13.6299 41.4291C12.2594 40.8614 11.0881 39.9001 10.264 38.6668C9.43987 37.4334 9 35.9834 9 34.5V33.2375" stroke="#555CFF" stroke-width="2" stroke-linecap="round" stroke-linejoin="round"/>
<path d="M31.5 27C30.0166 27 28.5666 27.4399 27.3332 28.264C26.0999 29.0881 25.1386 30.2594 24.5709 31.6299C24.0032 33.0003 23.8547 34.5083 24.1441 35.9632C24.4335 37.418 25.1478 38.7544 26.1967 39.8033C27.2456 40.8522 28.582 41.5665 30.0368 41.8559C31.4917 42.1453 32.9997 41.9968 34.3701 41.4291C35.7406 40.8614 36.9119 39.9001 37.736 38.6668C38.5601 37.4334 39 35.9834 39 34.5V33.2378" stroke="#555CFF" stroke-width="2" stroke-linecap="round" stroke-linejoin="round"/>
<path d="M13.5 33.75H12C9.87681 33.7496 7.82209 32.9988 6.19892 31.6301C4.57574 30.2615 3.48861 28.3631 3.12961 26.2705C2.77061 24.1779 3.16285 22.0257 4.23704 20.1943C5.31122 18.3629 6.99819 16.9702 8.99985 16.2622L8.99999 13.5C8.99999 11.5109 9.79017 9.60322 11.1967 8.1967C12.6032 6.79018 14.5109 6 16.5 6C18.4891 6 20.3968 6.79018 21.8033 8.1967C23.2098 9.60322 24 11.5109 24 13.5V34.5" stroke="#555CFF" stroke-width="2" stroke-linecap="round" stroke-linejoin="round"/>
<path d="M34.5 33.75H36C38.1232 33.7496 40.1779 32.9988 41.8011 31.6301C43.4242 30.2615 44.5114 28.3631 44.8704 26.2705C45.2294 24.1779 44.8371 22.0257 43.763 20.1943C42.6888 18.3629 41.0018 16.9702 39.0001 16.2622L39 13.5C39 11.5109 38.2098 9.60322 36.8033 8.1967C35.3968 6.79018 33.4891 6 31.5 6C29.5109 6 27.6032 6.79018 26.1967 8.1967C24.7902 9.60322 24 11.5109 24 13.5" stroke="#555CFF" stroke-width="2" stroke-linecap="round" stroke-linejoin="round"/>
<path d="M16.5 15.75V17.25C16.5 18.6424 15.9469 19.9777 14.9623 20.9623C13.9777 21.9469 12.6424 22.5 11.25 22.5" stroke="#555CFF" stroke-width="2" stroke-linecap="round" stroke-linejoin="round"/>
<path d="M31.5 15.75V17.25C31.5 18.6424 32.0531 19.9777 33.0377 20.9623C34.0223 21.9469 35.3576 22.5 36.75 22.5" stroke="#555CFF" stroke-width="2" stroke-linecap="round" stroke-linejoin="round"/>
</svg>
