<svg width="36" height="36" viewBox="0 0 36 36" fill="none" xmlns="http://www.w3.org/2000/svg">
<path d="M21.0474 27.5461L18.9648 31.0171C18.8648 31.1837 18.7235 31.3216 18.5544 31.4173C18.3854 31.513 18.1944 31.5633 18.0001 31.5633C17.8059 31.5633 17.6149 31.513 17.4458 31.4173C17.2768 31.3216 17.1354 31.1837 17.0354 31.0171L14.9528 27.5461C14.8529 27.3795 14.7115 27.2417 14.5424 27.146C14.3734 27.0502 14.1824 26.9999 13.9882 26.9999H5.62512C5.32675 26.9999 5.04061 26.8814 4.82963 26.6704C4.61865 26.4595 4.50012 26.1733 4.50012 25.8749V7.875C4.50012 7.57663 4.61865 7.29048 4.82963 7.07951C5.04061 6.86853 5.32675 6.75 5.62512 6.75H30.3751C30.6735 6.75 30.9596 6.86853 31.1706 7.07951C31.3816 7.29048 31.5001 7.57663 31.5001 7.875V25.875C31.5001 26.0227 31.471 26.169 31.4145 26.3055C31.3579 26.442 31.2751 26.566 31.1706 26.6705C31.0661 26.775 30.9421 26.8578 30.8056 26.9144C30.6691 26.9709 30.5229 27 30.3751 27L22.0121 26.9999C21.8178 26.9999 21.6269 27.0502 21.4578 27.146C21.2887 27.2417 21.1474 27.3795 21.0474 27.5461Z" stroke="#555CFF" stroke-width="2" stroke-linecap="round" stroke-linejoin="round"/>
<path d="M18 18.5625C18.932 18.5625 19.6875 17.807 19.6875 16.875C19.6875 15.943 18.932 15.1875 18 15.1875C17.068 15.1875 16.3125 15.943 16.3125 16.875C16.3125 17.807 17.068 18.5625 18 18.5625Z" fill="#555CFF"/>
<path d="M11.25 18.5625C12.182 18.5625 12.9375 17.807 12.9375 16.875C12.9375 15.943 12.182 15.1875 11.25 15.1875C10.318 15.1875 9.5625 15.943 9.5625 16.875C9.5625 17.807 10.318 18.5625 11.25 18.5625Z" fill="#555CFF"/>
<path d="M24.75 18.5625C25.682 18.5625 26.4375 17.807 26.4375 16.875C26.4375 15.943 25.682 15.1875 24.75 15.1875C23.818 15.1875 23.0625 15.943 23.0625 16.875C23.0625 17.807 23.818 18.5625 24.75 18.5625Z" fill="#555CFF"/>
</svg>
