<svg width="36" height="36" viewBox="0 0 36 36" fill="none" xmlns="http://www.w3.org/2000/svg">
<path d="M18 30.375C24.8345 30.375 30.375 24.8345 30.375 18C30.375 11.1655 24.8345 5.625 18 5.625C11.1655 5.625 5.625 11.1655 5.625 18C5.625 24.8345 11.1655 30.375 18 30.375Z" stroke="#555CFF" stroke-width="2" stroke-linecap="round" stroke-linejoin="round"/>
<path d="M18 2.8125V8.4375" stroke="#555CFF" stroke-width="2" stroke-linecap="round" stroke-linejoin="round"/>
<path d="M2.8125 18H8.4375" stroke="#555CFF" stroke-width="2" stroke-linecap="round" stroke-linejoin="round"/>
<path d="M18 33.1875V27.5625" stroke="#555CFF" stroke-width="2" stroke-linecap="round" stroke-linejoin="round"/>
<path d="M33.1875 18H27.5625" stroke="#555CFF" stroke-width="2" stroke-linecap="round" stroke-linejoin="round"/>
<path d="M18 22.5C20.4853 22.5 22.5 20.4853 22.5 18C22.5 15.5147 20.4853 13.5 18 13.5C15.5147 13.5 13.5 15.5147 13.5 18C13.5 20.4853 15.5147 22.5 18 22.5Z" stroke="#555CFF" stroke-width="2" stroke-linecap="round" stroke-linejoin="round"/>
</svg>
