<svg width="24" height="24" viewBox="0 0 24 24" fill="none" xmlns="http://www.w3.org/2000/svg">
<path d="M19.9805 5.99018C19.7207 5.99792 19.4741 6.1065 19.293 6.29292L8.99999 16.5859L5.70702 13.2929C5.61488 13.1969 5.50451 13.1203 5.38238 13.0675C5.26025 13.0147 5.12882 12.9869 4.99578 12.9855C4.86274 12.9842 4.73076 13.0094 4.60759 13.0597C4.48441 13.1099 4.37251 13.1843 4.27843 13.2784C4.18435 13.3725 4.10999 13.4844 4.0597 13.6075C4.00941 13.7307 3.9842 13.8627 3.98556 13.9957C3.98691 14.1288 4.0148 14.2602 4.06758 14.3823C4.12036 14.5045 4.19699 14.6148 4.29296 14.707L8.29296 18.707C8.4805 18.8944 8.73482 18.9998 8.99999 18.9998C9.26516 18.9998 9.51948 18.8944 9.70702 18.707L20.707 7.70698C20.8515 7.56652 20.9502 7.38567 20.9902 7.18815C21.0301 6.99063 21.0095 6.78565 20.931 6.60007C20.8524 6.41448 20.7196 6.25695 20.55 6.14812C20.3804 6.03929 20.1819 5.98424 19.9805 5.99018Z" fill="#00FF0A"/>
</svg>
