<svg width="100" height="32" viewBox="0 0 100 32" fill="none" xmlns="http://www.w3.org/2000/svg">
<rect x="1" y="1" width="98" height="30" rx="15" stroke="white" stroke-width="2"/>
<rect x="2" y="2" width="96" height="28" rx="14" fill="#3B82F6"/>
<path d="M39.4502 19.2568L42.2939 11.0469H43.7295L40.0381 21H38.876L35.1914 11.0469H36.6201L39.4502 19.2568ZM47.6396 21.1367C46.637 21.1367 45.8213 20.8086 45.1924 20.1523C44.5635 19.4915 44.249 18.6097 44.249 17.5068V17.2744C44.249 16.5407 44.388 15.8867 44.666 15.3125C44.9486 14.7337 45.3405 14.2826 45.8418 13.959C46.3477 13.6309 46.8945 13.4668 47.4824 13.4668C48.444 13.4668 49.1914 13.7835 49.7246 14.417C50.2578 15.0505 50.5244 15.9574 50.5244 17.1377V17.6641H45.5137C45.5319 18.3932 45.7438 18.9834 46.1494 19.4346C46.5596 19.8812 47.0791 20.1045 47.708 20.1045C48.1546 20.1045 48.5329 20.0133 48.8428 19.8311C49.1527 19.6488 49.4238 19.4072 49.6562 19.1064L50.4287 19.708C49.8089 20.6605 48.8792 21.1367 47.6396 21.1367ZM47.4824 14.5059C46.972 14.5059 46.5436 14.6927 46.1973 15.0664C45.8509 15.4355 45.6367 15.9551 45.5547 16.625H49.2598V16.5293C49.2233 15.8867 49.0501 15.39 48.7402 15.0391C48.4303 14.6836 48.0111 14.5059 47.4824 14.5059ZM55.5693 14.7383C55.3779 14.7064 55.1706 14.6904 54.9473 14.6904C54.1178 14.6904 53.555 15.0436 53.2588 15.75V21H51.9941V13.6035H53.2246L53.2451 14.458C53.6598 13.7972 54.2477 13.4668 55.0088 13.4668C55.2549 13.4668 55.4417 13.4987 55.5693 13.5625V14.7383ZM58.1123 21H56.8477V13.6035H58.1123V21ZM56.7451 11.6416C56.7451 11.4365 56.8066 11.2633 56.9297 11.1221C57.0573 10.9808 57.2441 10.9102 57.4902 10.9102C57.7363 10.9102 57.9232 10.9808 58.0508 11.1221C58.1784 11.2633 58.2422 11.4365 58.2422 11.6416C58.2422 11.8467 58.1784 12.0176 58.0508 12.1543C57.9232 12.291 57.7363 12.3594 57.4902 12.3594C57.2441 12.3594 57.0573 12.291 56.9297 12.1543C56.8066 12.0176 56.7451 11.8467 56.7451 11.6416ZM60.5664 21V14.5811H59.3975V13.6035H60.5664V12.9746C60.5664 12.1497 60.8011 11.5072 61.2705 11.0469C61.7445 10.5866 62.4121 10.3564 63.2734 10.3564C63.7839 10.3564 64.4287 10.4954 65.208 10.7734L64.9961 11.8398C64.4264 11.612 63.8841 11.498 63.3691 11.498C62.8268 11.498 62.4349 11.6211 62.1934 11.8672C61.9564 12.1087 61.8379 12.4733 61.8379 12.9609V13.6035H63.3486V14.5811H61.8379V21H60.5664ZM65.8369 21H64.5654V13.6035H65.8369V21ZM70.9639 21.1367C69.9613 21.1367 69.1455 20.8086 68.5166 20.1523C67.8877 19.4915 67.5732 18.6097 67.5732 17.5068V17.2744C67.5732 16.5407 67.7122 15.8867 67.9902 15.3125C68.2728 14.7337 68.6647 14.2826 69.166 13.959C69.6719 13.6309 70.2188 13.4668 70.8066 13.4668C71.7682 13.4668 72.5156 13.7835 73.0488 14.417C73.582 15.0505 73.8486 15.9574 73.8486 17.1377V17.6641H68.8379C68.8561 18.3932 69.068 18.9834 69.4736 19.4346C69.8838 19.8812 70.4033 20.1045 71.0322 20.1045C71.4788 20.1045 71.8571 20.0133 72.167 19.8311C72.4769 19.6488 72.748 19.4072 72.9805 19.1064L73.7529 19.708C73.1331 20.6605 72.2035 21.1367 70.9639 21.1367ZM70.8066 14.5059C70.2962 14.5059 69.8678 14.6927 69.5215 15.0664C69.1751 15.4355 68.9609 15.9551 68.8789 16.625H72.584V16.5293C72.5475 15.8867 72.3743 15.39 72.0645 15.0391C71.7546 14.6836 71.3353 14.5059 70.8066 14.5059ZM75.0107 17.2402C75.0107 16.1055 75.2796 15.194 75.8174 14.5059C76.3551 13.8132 77.0592 13.4668 77.9297 13.4668C78.7956 13.4668 79.4814 13.763 79.9873 14.3555V10.5H81.252V21H80.0898L80.0283 20.207C79.5225 20.8268 78.8184 21.1367 77.916 21.1367C77.0592 21.1367 76.3597 20.7858 75.8174 20.084C75.2796 19.3822 75.0107 18.4661 75.0107 17.3359V17.2402ZM76.2754 17.3838C76.2754 18.2223 76.4486 18.8786 76.7949 19.3525C77.1413 19.8265 77.6198 20.0635 78.2305 20.0635C79.0326 20.0635 79.6182 19.7035 79.9873 18.9834V15.5859C79.609 14.8887 79.028 14.54 78.2441 14.54C77.6243 14.54 77.1413 14.7793 76.7949 15.2578C76.4486 15.7363 76.2754 16.445 76.2754 17.3838Z" fill="white"/>
<circle cx="16" cy="16" r="13" fill="white" stroke="#3B82F6" stroke-width="2"/>
<circle cx="16" cy="16" r="10.8889" fill="#3B82F6"/>
<g clip-path="url(#clip0_79_18)">
<path d="M13.6667 19.2667L10.4 16L9.3111 17.0889L13.6667 21.4444L23 12.1111L21.9111 11.0222L13.6667 19.2667Z" fill="white"/>
</g>
<defs>
<clipPath id="clip0_79_18">
<rect width="18.6667" height="18.6667" fill="white" transform="translate(6.66666 6.66666)"/>
</clipPath>
</defs>
</svg>
